<svg width="25" height="25" viewBox="0 0 25 25" fill="none" xmlns="http://www.w3.org/2000/svg">
<path d="M20.3235 12.3124C20.3235 11.2768 20.1195 10.2514 19.7232 9.29458C19.3269 8.33781 18.746 7.46846 18.0137 6.73617C17.2815 6.00389 16.4121 5.423 15.4553 5.02669C14.4986 4.63038 13.4731 4.42641 12.4375 4.42641C11.4019 4.42641 10.3764 4.63039 9.41963 5.0267C8.46285 5.42301 7.5935 6.00389 6.86122 6.73617C6.12893 7.46846 5.54805 8.33781 5.15174 9.29458C4.75543 10.2514 4.55145 11.2768 4.55145 12.3124L6.00503 12.3124C6.00503 11.4677 6.17141 10.6313 6.49467 9.85084C6.81793 9.07042 7.29174 8.36131 7.88905 7.764C8.48636 7.16669 9.19547 6.69288 9.97589 6.36962C10.7563 6.04636 11.5928 5.87998 12.4375 5.87998C13.2822 5.87998 14.1187 6.04636 14.8991 6.36962C15.6795 6.69288 16.3886 7.16669 16.9859 7.764C17.5832 8.36131 18.057 9.07042 18.3803 9.85084C18.7036 10.6313 18.8699 11.4677 18.8699 12.3124H20.3235Z" fill="#47BF70"/>
<path d="M18.8898 12.3125C18.8898 11.4652 18.7229 10.6262 18.3986 9.84334C18.0744 9.06053 17.5991 8.34924 17 7.7501C16.4008 7.15096 15.6895 6.67569 14.9067 6.35144C14.1239 6.02718 13.2849 5.86029 12.4376 5.86029C11.5902 5.86029 10.7512 6.02718 9.9684 6.35144C9.18559 6.67569 8.4743 7.15096 7.87516 7.7501C7.27602 8.34924 6.80075 9.06053 6.4765 9.84334C6.15224 10.6262 5.98535 11.4652 5.98535 12.3125L7.93901 12.3125C7.93901 11.7217 8.05537 11.1368 8.28144 10.591C8.50752 10.0452 8.83888 9.54927 9.25661 9.13155C9.67433 8.71382 10.1703 8.38246 10.716 8.15638C11.2618 7.93031 11.8468 7.81395 12.4376 7.81395C13.0283 7.81395 13.6133 7.93031 14.1591 8.15638C14.7049 8.38246 15.2008 8.71382 15.6185 9.13155C16.0362 9.54927 16.3676 10.0452 16.5937 10.591C16.8197 11.1368 16.9361 11.7217 16.9361 12.3125H18.8898Z" fill="#48D9FF"/>
<path d="M17.4558 12.3125C17.4558 11.6535 17.326 11.0009 17.0738 10.3921C16.8216 9.78323 16.452 9.23001 15.986 8.76401C15.52 8.29801 14.9668 7.92836 14.3579 7.67616C13.749 7.42396 13.0965 7.29416 12.4374 7.29416C11.7784 7.29416 11.1259 7.42396 10.517 7.67616C9.90814 7.92836 9.35492 8.29801 8.88892 8.76401C8.42292 9.23001 8.05327 9.78323 7.80107 10.3921C7.54887 11.0009 7.41907 11.6535 7.41907 12.3125L8.87931 12.3125C8.87931 11.8453 8.97134 11.3826 9.15016 10.9509C9.32897 10.5192 9.59106 10.127 9.92147 9.79656C10.2519 9.46615 10.6441 9.20406 11.0758 9.02525C11.5075 8.84644 11.9702 8.7544 12.4374 8.7544C12.9047 8.7544 13.3674 8.84644 13.7991 9.02525C14.2308 9.20406 14.623 9.46615 14.9534 9.79656C15.2838 10.127 15.5459 10.5192 15.7247 10.9509C15.9036 11.3826 15.9956 11.8453 15.9956 12.3125H17.4558Z" fill="#73A7E6"/>
<path d="M21.7573 12.3125C21.7573 9.84077 20.7754 7.47022 19.0276 5.72241C17.2798 3.9746 14.9092 2.99269 12.4375 2.99269C9.96569 2.99269 7.59515 3.9746 5.84734 5.72241C4.09953 7.47022 3.11762 9.84076 3.11761 12.3125L4.5501 12.3125C4.5501 10.2207 5.38109 8.2145 6.86026 6.73533C8.33943 5.25616 10.3456 4.42518 12.4375 4.42518C14.5293 4.42518 16.5355 5.25616 18.0147 6.73533C19.4938 8.2145 20.3248 10.2207 20.3248 12.3125H21.7573Z" fill="#FFE278"/>
<path d="M23.1911 12.3125C23.1911 9.46042 22.0581 6.72518 20.0414 4.70847C18.0247 2.69177 15.2894 1.55879 12.4374 1.55879C9.58534 1.55879 6.8501 2.69176 4.8334 4.70847C2.81669 6.72517 1.68372 9.46041 1.68372 12.3125L3.12585 12.3125C3.12585 9.84289 4.10688 7.47446 5.85314 5.72821C7.59939 3.98196 9.96782 3.00092 12.4374 3.00092C14.907 3.00092 17.2754 3.98196 19.0216 5.72821C20.7679 7.47446 21.7489 9.84289 21.7489 12.3125H23.1911Z" fill="#FFAE46"/>
<path d="M24.625 12.3125C24.625 9.08017 23.341 5.98024 21.0554 3.69464C18.7698 1.40904 15.6698 0.125 12.4375 0.125C9.20518 0.125 6.10524 1.40904 3.81964 3.69464C1.53404 5.98023 0.25 9.08017 0.25 12.3125L1.72913 12.3125C1.72913 9.47246 2.85733 6.74875 4.86554 4.74054C6.87375 2.73233 9.59747 1.60413 12.4375 1.60413C15.2775 1.60413 18.0013 2.73233 20.0095 4.74054C22.0177 6.74875 23.1459 9.47246 23.1459 12.3125H24.625Z" fill="#FC5A37"/>
</svg>
